# xmcd
#
# Track frame offsets: 
#        150
#        80119
#        120361
#        177824
#        218776
#        224401
#        235341
#        238463
#        255838
#        257743
#        262041
#        273074
#        275862
#        280373
#        290513
#        296129
#        302204
#        308854
#        316029
#        329223
#
# Disc length: 4669 seconds
#
# Revision: 0
# Processed by: cddbd v1.5.2PL0 Copyright (c) Steve Scherf et al.
# Submitted via: ExactAudioCopy v0.99pb4
#
DISCID=46123b14
DTITLE=Garrick Ohlsson - Great Artistes Live In Prague - Garrick Ohlss
DTITLE=on (2)
DYEAR=1978
DGENRE=Classical
TTITLE0=Concerto For Piano And Orchestra No.2 I. Allegro Non Troppo
TTITLE1=Concerto For Piano And Orchestra No.2 II. Allegro Appassionato
TTITLE2=Concerto For Piano And Orchestra No.2 III. Andante
TTITLE3=Concerto For Piano And Orchestra No.2 IV. Allegro Molto
TTITLE4=Pictures At An Exhibition - Promenade
TTITLE5=Pictures At An Exhibition - I. The Gnome
TTITLE6=Pictures At An Exhibition - Promenade
TTITLE7=Pictures At An Exhibition - II. The Old Castle
TTITLE8=Pictures At An Exhibition - Promenade
TTITLE9=Pictures At An Exhibition - Iii. Tuileries
TTITLE10=Pictures At An Exhibition - Iv. Bydlo
TTITLE11=Pictures At An Exhibition - Promenade
TTITLE12=Pictures At An Exhibition - V. Unhatched Chickens
TTITLE13=Pictures At An Exhibition - Vi. Samuel Goldenberg and Schmuyle
TTITLE14=Pictures At An Exhibition - Promenade
TTITLE15=Pictures At An Exhibition - Vii. Market Place At Limoges
TTITLE16=Pictures At An Exhibition - VIII. Catacombe (Sepulchrum Roman
TTITLE16=um)
TTITLE17=Pictures At An Exhibition - Con Mortuis In Lingua Mortua
TTITLE18=Pictures At An Exhibition - Ix. Baba-Jaga
TTITLE19=Pictures At An Exhibition - X. Great Gate Of Kiev
EXTD=
EXTT0=
EXTT1=
EXTT2=
EXTT3=
EXTT4=
EXTT5=
EXTT6=
EXTT7=
EXTT8=
EXTT9=
EXTT10=
EXTT11=
EXTT12=
EXTT13=
EXTT14=
EXTT15=
EXTT16=
EXTT17=
EXTT18=
EXTT19=
PLAYORDER=
